# xmcd
#
# Track frame offsets: 
#        150
#        19182
#        37431
#        50878
#        66004
#        83700
#        102675
#        118848
#        135213
#        154955
#
# Disc length: 2285 seconds
#
# Revision: 2
# Processed by: cddbd v1.5.2PL0 Copyright (c) Steve Scherf et al.
# Submitted via: ExactAudioCopy v1.0b1
#
DISCID=9008eb0a
DTITLE=Rodney Crowell - But What Will The Neighbors Think
DYEAR=1977
DGENRE=Country
TTITLE0=Stars on the Water
TTITLE1=Just Wanta Dance
TTITLE2=She Ain't Going Nowhere
TTITLE3=Don't Need No Other Now
TTITLE4=Shame on the Moon
TTITLE5=Only Two Hearts
TTITLE6=Victim or a Fool
TTITLE7=All you've Got to Do
TTITLE8='Til I Gain Control Again
TTITLE9=Old Pipeliner
EXTD=
EXTT0=
EXTT1=
EXTT2=
EXTT3=
EXTT4=
EXTT5=
EXTT6=
EXTT7=
EXTT8=
EXTT9=
PLAYORDER=
